HIERARCHY
ROOT Hips
{
 OFFSET 0.000000 0.000000 0.000000
 CHANNELS 6 Xposition Yposition Zposition Yrotation Xrotation Zrotation
 JOINT Chest
 {
  OFFSET 0.000000 9.585900 0.002600
  CHANNELS 3 Yrotation Xrotation Zrotation
  JOINT Chest2
  {
   OFFSET 0.000000 9.601200 -0.005300
   CHANNELS 3 Yrotation Xrotation Zrotation
   JOINT Chest3
   {
    OFFSET 0.000000 9.561800 0.000000
    CHANNELS 3 Yrotation Xrotation Zrotation
    JOINT Chest4
    {
     OFFSET 0.000000 9.552100 0.000000
     CHANNELS 3 Yrotation Xrotation Zrotation
     JOINT Neck
     {
      OFFSET 0.000000 14.453000 0.000000
      CHANNELS 3 Yrotation Xrotation Zrotation
      JOINT Head
      {
       OFFSET 0.000000 8.936500 -0.011300
       CHANNELS 3 Yrotation Xrotation Zrotation
       End Site
       {
        OFFSET 0.000000 17.073600 -0.006000
       }
      }
     }
     JOINT RightCollar
     {
      OFFSET -2.921100 9.558500 0.000000
      CHANNELS 3 Yrotation Xrotation Zrotation
      JOINT RightShoulder
      {
       OFFSET -13.519700 0.000000 0.000000
       CHANNELS 3 Yrotation Xrotation Zrotation
       JOINT RightElbow
       {
        OFFSET 0.000000 -29.696600 0.000000
        CHANNELS 3 Yrotation Xrotation Zrotation
        JOINT RightWrist
        {
         OFFSET 0.000000 -24.004700 0.000000
         CHANNELS 3 Yrotation Xrotation Zrotation
         End Site
         {
          OFFSET 0.000000 -17.728500 0.000000
         }
        }
       }
      }
     }
     JOINT LeftCollar
     {
      OFFSET 2.921100 9.558500 0.000000
      CHANNELS 3 Yrotation Xrotation Zrotation
      JOINT LeftShoulder
      {
       OFFSET 13.519700 0.000000 0.000000
       CHANNELS 3 Yrotation Xrotation Zrotation
       JOINT LeftElbow
       {
        OFFSET 0.000000 -29.696600 0.000000
        CHANNELS 3 Yrotation Xrotation Zrotation
        JOINT LeftWrist
        {
         OFFSET 0.000000 -24.004700 0.000000
         CHANNELS 3 Yrotation Xrotation Zrotation
         End Site
         {
          OFFSET 0.000000 -17.728500 0.000000
         }
        }
       }
      }
     }
    }
   }
  }
 }
 JOINT RightHip
 {
  OFFSET -7.771700 -0.012900 -0.001300
  CHANNELS 3 Yrotation Xrotation Zrotation
  JOINT RightKnee
  {
   OFFSET 0.000000 -40.869800 0.001200
   CHANNELS 3 Yrotation Xrotation Zrotation
   JOINT RightAnkle
   {
    OFFSET 0.000000 -39.717900 0.002100
    CHANNELS 3 Yrotation Xrotation Zrotation
    JOINT RightToe
    {
     OFFSET 0.000000 -4.965400 11.033500
     CHANNELS 3 Yrotation Xrotation Zrotation
     End Site
     {
      OFFSET 0.000000 -1.423100 5.872300
     }
    }
   }
  }
 }
 JOINT LeftHip
 {
  OFFSET 7.771700 -0.012900 -0.001300
  CHANNELS 3 Yrotation Xrotation Zrotation
  JOINT LeftKnee
  {
   OFFSET 0.000000 -40.869800 0.001200
   CHANNELS 3 Yrotation Xrotation Zrotation
   JOINT LeftAnkle
   {
    OFFSET 0.000000 -39.717900 0.002100
    CHANNELS 3 Yrotation Xrotation Zrotation
    JOINT LeftToe
    {
     OFFSET 0.000000 -4.965400 11.033500
     CHANNELS 3 Yrotation Xrotation Zrotation
     End Site
     {
      OFFSET 0.000000 -1.423100 5.872300
     }
    }
   }
  }
 }
}
MOTION
Frames: 6
Frame Time: 0.008333
0.204273 49.445950 26.651573 175.994882 -34.225357 -7.506099 5.513006 18.908209 6.710431 0.565203 2.375596 0.586787 0.942317 3.900234 0.977309 4.512190 16.312374 4.673438 -1.422132 17.365160 2.070780 -3.316832 -3.495931 4.309696 -2.364428 -1.417309 -5.153234 0.813103 -3.180068 0.323571 109.126047 -77.578345 -111.962953 2.401165 2.030105 -6.629236 -8.509629 -3.195521 -0.711605 3.675799 -2.161440 0.402392 -133.881914 -76.200552 117.560132 8.339034 6.681201 -2.346103 -2.094714 -44.661702 9.362647 -117.852128 80.049475 -104.583385 -0.832319 -15.979572 -4.422450 -0.112884 0.994632 -0.108429 -9.994475 -49.562766 14.610510 -165.493404 78.539281 -171.691189 2.224285 -17.897130 5.376806 -0.059612 -0.247238 -0.052651
0.211646 49.449303 26.644272 176.018375 -34.195403 -7.533480 5.505537 18.925415 6.743620 0.564474 2.377658 0.587640 0.937091 3.877710 0.968704 4.507860 16.315655 4.673875 -1.425018 17.366544 2.063201 -3.320657 -3.495118 4.296042 -2.329108 -1.421435 -5.140636 0.805927 -3.174094 0.242272 109.382224 -77.625307 -112.169359 2.374865 1.913361 -6.820037 -8.531159 -3.169178 -0.698845 3.645423 -2.177802 0.384232 -134.412860 -76.227948 118.065188 8.354636 6.793538 -2.420441 -2.207083 -44.686747 9.392434 -118.036484 80.011101 -104.738148 -0.814526 -16.030498 -4.508156 -0.058469 1.005398 -0.072709 -10.062601 -49.603099 14.652224 -165.549609 78.509934 -171.757286 2.245055 -17.910329 5.368688 -0.078330 -0.245948 -0.047778
0.221299 49.453298 26.637891 176.034959 -34.167874 -7.573800 5.510488 18.941741 6.793355 0.565598 2.392435 0.593418 0.939056 3.908442 0.981225 4.488963 16.255780 4.645227 -1.421473 17.420896 2.067057 -3.336299 -3.444330 4.258118 -2.307860 -1.424717 -5.131908 0.782494 -3.174842 0.169703 109.614721 -77.674808 -112.364733 2.333144 1.820664 -6.954305 -8.551139 -3.146635 -0.684549 3.626653 -2.204127 0.358506 -134.995807 -76.292412 118.570730 8.382670 6.925932 -2.473514 -2.281410 -44.711770 9.437553 -118.141128 79.971698 -104.805145 -0.809668 -16.087079 -4.561911 -0.008553 1.032355 -0.048641 -10.128510 -49.639693 14.710669 -165.620722 78.479957 -171.824451 2.253690 -17.929169 5.360007 -0.078408 -0.239909 -0.043933
0.227312 49.455867 26.633651 176.029073 -34.129115 -7.581657 5.523469 18.947198 6.818383 0.563930 2.370478 0.587589 0.944328 3.951456 0.997556 4.499913 16.309828 4.680813 -1.444132 17.390687 2.029253 -3.347546 -3.417148 4.230535 -2.310381 -1.523888 -5.166743 0.762220 -3.187468 0.125902 109.771856 -77.710626 -112.476490 2.294279 1.742221 -7.084464 -8.589197 -3.226885 -0.699529 3.632387 -2.239781 0.331157 -135.626666 -76.386534 119.103111 8.413760 7.071881 -2.553233 -2.386108 -44.746146 9.495486 -118.219529 79.970696 -104.923442 -0.761176 -16.134506 -4.568047 -0.032660 1.067659 -0.072271 -10.144259 -49.692080 14.729266 -165.696720 78.456683 -171.892232 2.268870 -17.945619 5.352315 -0.061976 -0.233215 -0.040231
0.231936 49.457365 26.631790 176.019377 -34.077243 -7.580154 5.528734 18.917768 6.825089 0.566015 2.410433 0.600596 0.943454 3.945221 0.996943 4.500657 16.319955 4.690767 -1.449007 17.406628 2.017794 -3.351897 -3.387884 4.210368 -2.305204 -1.567253 -5.181847 0.744282 -3.201466 0.087156 110.118617 -77.792425 -112.700319 2.322078 1.690492 -7.294319 -8.606224 -3.273940 -0.708883 3.630303 -2.253000 0.315929 -136.298903 -76.489218 119.679744 8.436476 7.215781 -2.667145 -2.550744 -44.784018 9.585412 -118.250452 79.975387 -105.042161 -0.701925 -16.189716 -4.559919 -0.078510 1.109527 -0.103950 -10.131814 -49.764348 14.721632 -165.916988 78.438854 -172.079171 2.236979 -17.953165 5.341054 -0.065546 -0.226046 -0.034063
0.240195 49.463668 26.624961 176.026629 -34.067771 -7.607252 5.532820 18.930749 6.856585 0.565733 2.452663 0.614995 0.943844 3.939706 0.995892 4.502463 16.332416 4.700400 -1.452960 17.422592 2.007628 -3.355009 -3.358538 4.192256 -2.302651 -1.619963 -5.200733 0.717889 -3.207228 0.037919 110.339349 -77.841425 -112.864510 2.317518 1.614450 -7.453835 -8.624726 -3.327028 -0.719791 3.612856 -2.258595 0.304341 -137.084616 -76.574644 120.325453 8.447779 7.346045 -2.746343 -2.616507 -44.789501 9.635689 -118.336151 79.961284 -105.117468 -0.705331 -16.239451 -4.588798 -0.062245 1.125737 -0.077082 -10.166140 -49.778846 14.757904 -166.020378 78.416787 -172.177192 2.238220 -17.971777 5.331507 -0.066650 -0.221543 -0.030425
